<?xml version="1.0" encoding="utf-8"?>
<!-- Generator: Adobe Illustrator 22.0.1, SVG Export Plug-In . SVG Version: 6.00 Build 0)  -->
<svg version="1.1" id="Layer_1" xmlns="http://www.w3.org/2000/svg" xmlns:xlink="http://www.w3.org/1999/xlink" x="0px" y="0px"
	 viewBox="0 0 1280 1024" style="enable-background:new 0 0 1280 1024;" xml:space="preserve">
<style type="text/css">
	.st0{fill:none;stroke:#000000;stroke-miterlimit:10;}
	.st1{fill:#9966CC;stroke:#8AAEFF;stroke-width:2;stroke-miterlimit:10;}
	.st2{fill:none;stroke:#92FF15;stroke-width:3;stroke-miterlimit:10;}
	.st3{fill:url(#SVGID_1_);}
</style>
<path class="st0" d="M51.5,464.5"/>
<path class="st1" d="M1280.7,549.7c-12.5,1.5-25.2,1.2-37.6-1.3c-23.5-4.7-44.5-17.1-62.4-32.8c-18.5-16.3-33.9-35.7-51.5-52.9
	c-16.9-16.5-36.4-31.1-59.4-37.6c-24.3-6.8-50.3-4-73,6.7c-21.9,10.3-40,26.8-58,42.6c-18.4,16.2-37.7,32.5-60.8,41.6
	c-23.1,9-48.8,10-72.2,1.9c-22-7.6-40.3-22.4-56.1-39.1c-17.3-18.3-32.5-38.8-51.8-55.1c-17.6-14.8-38.4-25.6-61.4-27.9
	c-24.9-2.5-49.5,4.3-70.8,17.1c-21.2,12.8-39.1,30-57.6,46.3c-18.2,16.2-37.5,32.1-60.5,40.9c-23.1,8.9-48.9,10.4-72.5,2.1
	c-22.1-7.8-40.4-22.8-56.8-39.1c-17.2-17.2-33.3-35.8-53.9-49c-20.4-13.1-44.4-20.6-68.7-20.9c-25.8-0.4-51.2,6.8-74.5,17.6
	c-22.9,10.6-44.1,24.7-63.9,40.2C37,467,18.1,484.9,0,503.5l1,148l1280,28L1280.7,549.7z"/>
<path class="st2" d="M1011,214.7c110.5-18.2,214.8,56.6,233,167.1c14.6,88.4-45.2,171.9-133.6,186.5
	c-70.7,11.7-137.5-36.2-149.1-107c-9.3-56.6,29-110,85.5-119.4c45.2-7.5,88,23.2,95.4,68.5c6,36.2-18.5,70.4-54.7,76.4
	c-29,4.8-56.3-14.8-61.1-43.8c-3.8-23.2,11.9-45.1,35-48.9c18.5-3.1,36,9.5,39.1,28c2.4,14.8-7.6,28.8-22.4,31.3"/>
<linearGradient id="SVGID_1_" gradientUnits="userSpaceOnUse" x1="640.1918" y1="1023.5" x2="640.1918" y2="393.3165">
	<stop  offset="0" style="stop-color:#4B63C6"/>
	<stop  offset="1" style="stop-color:#0CA3EF"/>
</linearGradient>
<path class="st3" d="M1279.9,516.7c-10.4,7.1-21.2,13.6-32.5,19.1c-22.3,10.8-47.4,17.4-72.3,16.7c-23.6-0.7-46-9.9-65-23.6
	c-20.4-14.5-37.2-33.3-53.5-52.1c-15.2-17.5-32.1-34.2-53.1-44.5c-22-10.8-47.9-14-71.7-8.2c-23.4,5.7-43.4,20.1-61.2,35.8
	c-9.7,8.5-19,17.4-28.1,26.4c-4,4-9,6.2-13.2,9.9c-4.4,3.9-8.8,7.6-13.8,10.8c-19.8,12.8-43.7,19.1-67.3,18
	c-24.7-1.1-46.1-10.9-64.9-26.6c-18.8-15.7-33.9-35-50.1-53.2c-15.9-17.9-33.7-34.5-56.3-43.4c-22.7-8.9-47.6-8.9-70.6-1.3
	c-22.9,7.6-41.4,21.6-58.9,37.8c-18.4,16.9-36.3,34.3-57.3,48.1c-19.6,12.8-41.5,23-65.3,23.5c-23.7,0.4-46.4-8.4-65.7-21.8
	c-20.2-14-35.5-33.3-52.6-50.6c-16.1-16.4-34.7-31.7-57.1-38.3c-25.6-7.6-53.4-7.8-79.1-0.8c-12.6,3.4-24.7,8.3-36.4,13.9
	c-6,2.8-11.9,5.8-17.6,9c-5.4,3.1-10.2,7.1-15.7,10.1l0,592c434.9-163.9,862.5-189.4,1279,0L1279.9,516.7z"/>
<path class="st0" d="M161.5,393.5"/>
<g>
	<circle class="st2" cx="868.8" cy="328.8" r="30.3"/>
	<path class="st2" d="M849,320.1c1.2-2.2,4-6.6,9.4-10c6.5-4,12.8-4.2,15.3-4.1"/>
</g>
<g>
	<circle class="st2" cx="955.2" cy="261.9" r="24.1"/>
	<path class="st2" d="M939.1,256c0.9-1.8,2.9-5.4,7-8.4c4.9-3.5,10-3.9,11.9-4"/>
</g>
<g>
	<circle class="st2" cx="874.5" cy="173.5" r="25"/>
	<path class="st2" d="M858.1,166.4c1-1.8,3.3-5.5,7.8-8.3c5.3-3.3,10.6-3.5,12.6-3.4"/>
</g>
<g>
	<circle class="st2" cx="933.3" cy="91.3" r="17.8"/>
	<path class="st2" d="M921.6,86.2c0.7-1.3,2.4-3.9,5.5-5.9c3.8-2.4,7.5-2.5,9-2.4"/>
</g>
<path class="st2" d="M-75.5,156.5"/>
</svg>
